The Mr Men TV Series

Re-coded & cleaned up a bit.



Format                                   : AVI
Format/Info                              : Audio Video Interleave
File size                                : 50.4 MiB Average
Duration                                 : 7mn ~ish
Overall bit rate                         : 945 Kbps


Video
ID                                       : 0
Format                                   : MPEG-4 Visual
Format settings, BVOP                    : No
Format settings, QPel                    : No
Format settings, GMC                     : No warppoints
Format settings, Matrix                  : Default (H.263)
Codec ID                                 : DX50
Codec ID/Hint                            : DivX 5
Duration                                 : 7mn ~ish
Bit rate                                 : 807 Kbps
Width                                    : 576 pixels
Height                                   : 432 pixels
Display aspect ratio                     : 4:3
Frame rate                               : 25.000 fps
Color space                              : YUV
Chroma subsampling                       : 4:2:0
Bit depth                                : 8 bits
Scan type                                : Interlaced
Scan order                               : Bottom Field First
Compression mode                         : Lossy
Bits/(Pixel*Frame)                       : 0.130
Stream size                              : 43.1 MiB (85%)
Writing library                          : DivX 6.8.5 (UTC 2009-08-20)

Audio
ID                                       : 1
Format                                   : AC-3
Format/Info                              : Audio Coding 3
Mode extension                           : CM (complete main)
Codec ID                                 : 2000
Duration                                 : 7mn ~ish
Bit rate mode                            : Constant
Bit rate                                 : 128 Kbps
Channel(s)                               : 2 channels
Channel positions                        : Front: L R
Sampling rate                            : 44.1 KHz
Bit depth                                : 16 bits
Compression mode                         : Lossy
Stream size                              : 6.81 MiB (14%)
Alignment                                : Aligned on interleaves
Interleave, duration                     : 40 ms (1.00 video frame)
Interleave, preload duration             : 522 ms

